<svg xmlns="http://www.w3.org/2000/svg" viewBox="0 0 113.86 112.86">
  <defs>
    <style>
      .m21-i1-cls-1 {
        fill: none;
      }
      .m21-i1-cls-1, .m21-i1-cls-2 {
        stroke: currentColor;
        stroke-linecap: round;
        stroke-linejoin: round;
        stroke-width: 2.4px;
      }
      .m21-i1-cls-2 {
        fill: currentColor;
      }
    </style>
  </defs>
  <title>Vector Smart Object</title>
  <g>
    <g>
      <g>
        <g>
          <path class="m21-i1-cls-1" d="M144.7,348.85c7.14,7.87-5.67,35,2.59,35,10.81,0,14.71-31.34,12.17-46.44-.73-4.34,5.93-13.18,5.93-20.33s-3.17-15.69-10.85-15.69-8.79,6.64-15.38,6.64-7.69-6.64-15.38-6.64-10.86,8.56-10.86,15.69,6.67,16,5.94,20.33c-2.54,15.1,1.35,46.44,12.17,46.44,8.52,0-5.42-29,3.34-35.74h0" transform="translate(-111.72 -300.22)"/>
          <g>
            <path class="m21-i1-cls-1" d="M140.14,329.86a9.08,9.08,0,0,0,6-2.64" transform="translate(-111.72 -300.22)"/>
            <path class="m21-i1-cls-1" d="M134.12,327.22a9.07,9.07,0,0,0,6,2.64" transform="translate(-111.72 -300.22)"/>
          </g>
          <path class="m21-i1-cls-2" d="M151.83,321a1.52,1.52,0,0,0-1.51-1.51c-.84,0-2,.68-2,1.51s1.18,1.51,2,1.51A1.51,1.51,0,0,0,151.83,321Z" transform="translate(-111.72 -300.22)"/>
          <path class="m21-i1-cls-2" d="M127.25,321.32a1.51,1.51,0,0,1,1.51-1.51c.83,0,2,.67,2,1.51s-1.18,1.5-2,1.5A1.51,1.51,0,0,1,127.25,321.32Z" transform="translate(-111.72 -300.22)"/>
        </g>
        <g>
          <path class="m21-i1-cls-1" d="M138.85,342.24a3.42,3.42,0,1,1-3.42,3.42A3.42,3.42,0,0,1,138.85,342.24Z" transform="translate(-111.72 -300.22)"/>
          <path class="m21-i1-cls-1" d="M141.91,347.41l7.72,4a2.15,2.15,0,0,0,3.13-1.91v-8.14a1.85,1.85,0,0,0-2.7-1.65l-8.15,4.2" transform="translate(-111.72 -300.22)"/>
          <path class="m21-i1-cls-1" d="M135.78,347.41l-7.72,4a2.15,2.15,0,0,1-3.13-1.91v-8.14a1.85,1.85,0,0,1,2.7-1.65l8.16,4.2" transform="translate(-111.72 -300.22)"/>
        </g>
      </g>
      <g>
        <g>
          <path class="m21-i1-cls-2" d="M209.22,354.39a1.56,1.56,0,1,0-1.37,1.73A1.56,1.56,0,0,0,209.22,354.39Z" transform="translate(-111.72 -300.22)"/>
          <path class="m21-i1-cls-2" d="M188,354.39a1.56,1.56,0,1,1,1.36,1.73A1.55,1.55,0,0,1,188,354.39Z" transform="translate(-111.72 -300.22)"/>
          <line class="m21-i1-cls-1" x1="97.5" y1="54.17" x2="99.21" y2="53.03"/>
          <line class="m21-i1-cls-1" x1="76.24" y1="54.17" x2="74.53" y2="53.03"/>
          <path class="m21-i1-cls-1" d="M174.69,337.09c1.67-3.59,4.53-6.25,8.78-6.25a10.57,10.57,0,0,1,6.42,2.07" transform="translate(-111.72 -300.22)"/>
          <path class="m21-i1-cls-1" d="M198.25,337.35h.34c6.47,0,7.55-6.52,15.11-6.52s10.68,8.41,10.68,15.42-6.56,15.71-5.84,20c2.5,14.85-1.33,45.66-12,45.66-9.49,0,9.35-36.52-8-36.52s1.5,36.52-8,36.52c-10.63,0-14.47-30.81-12-45.66.71-4.26-5.85-13-5.85-20,0-.14,0-.28,0-.42" transform="translate(-111.72 -300.22)"/>
          <g>
            <path class="m21-i1-cls-1" d="M198.91,365a8,8,0,0,0,5.33-2.34" transform="translate(-111.72 -300.22)"/>
            <path class="m21-i1-cls-1" d="M193.59,362.67a8,8,0,0,0,5.32,2.34" transform="translate(-111.72 -300.22)"/>
          </g>
        </g>
        <g>
          <path class="m21-i1-cls-1" d="M183.48,335.51a3.36,3.36,0,1,1-2.08,4.27A3.36,3.36,0,0,1,183.48,335.51Z" transform="translate(-111.72 -300.22)"/>
          <path class="m21-i1-cls-1" d="M188,339.34l6.52,1a3.29,3.29,0,0,0,3.59-4.32l-1.41-4.1a2.87,2.87,0,0,0-4.79-1.05l-5,5.26" transform="translate(-111.72 -300.22)"/>
          <path class="m21-i1-cls-1" d="M182.29,341.29l-4.56,4.77a3.29,3.29,0,0,1-3.08.93,3.25,3.25,0,0,1-2.4-2.14l-1.41-4.1A2.87,2.87,0,0,1,174,337l7.2,1" transform="translate(-111.72 -300.22)"/>
        </g>
      </g>
    </g>
  </g>
</svg>
