<svg xmlns="http://www.w3.org/2000/svg" viewBox="0 0 113.86 94.94">
  <defs>
    <style>
      .m21-i2-cls-1 {
        fill: none;
        stroke: currentColor;
        stroke-linecap: round;
        stroke-linejoin: round;
        stroke-width: 2.4px;
      }
    </style>
  </defs>
  <title>m21-custom-2</title>
  <g>
    <g>
      <path class="m21-i2-cls-1" d="M604.45,755.61h0c6.56.56,8.1-4.58,15.77-3.93s10.1,9.45,9.49,16.57-9.66,16.53-9,20.87c2.45,15.79-4,45-14.74,44.13-9.62-.82,12.63-36.22-5-37.72h0c-17.58-1.49-1.63,37.16-11.25,36.34-10.79-.92-12.15-30.84-7.06-46,1.4-4.17-5.93-15-5.32-22.1s4.49-15.37,12.15-14.72,8.31,6,14.89,6.53Z" transform="translate(-543.07 -747.83)"/>
      <path class="m21-i2-cls-1" d="M544.27,798.43c40.2,0,18.92,9.94,34.79,36.67,3.48,5.85,9,6.48,12.25,6.48a10.66,10.66,0,0,0,5.57-1.52,5.92,5.92,0,0,1,3.12-.88h0a6,6,0,0,1,3.13.88,10.6,10.6,0,0,0,5.56,1.52c3.27,0,8.78-.63,12.25-6.48,15.87-26.73-5.4-36.67,34.79-36.67" transform="translate(-543.07 -747.83)"/>
    </g>
  </g>
</svg>