<svg xmlns="http://www.w3.org/2000/svg" viewBox="0 0 108.79 99.19">
  <defs>
    <style>
      .m21-i3-cls-1 {
        fill: none;
        stroke: currentColor;
        stroke-linecap: round;
        stroke-linejoin: round;
        stroke-width: 2.4px;
      }
    </style>
  </defs>
  <title>m21-custom-3</title>
  <g>
    <g>
      <g>
        <path class="m21-i3-cls-1" d="M1068.06,362.38a5.88,5.88,0,0,1-4.77,3.78c-5.73.72-14.23.81-18.92-.23a4,4,0,0,1-3.11-3.7c0-1-.09-2.33-.09-3.8" transform="translate(-976.96 -307.06)"/>
        <path class="m21-i3-cls-1" d="M1041.17,358.27c0-9.69,1.11-28,12.62-28,7.52,0,11.2,7,13,14.61" transform="translate(-976.96 -307.06)"/>
      </g>
      <g>
        <path class="m21-i3-cls-1" d="M1027,336.59c0,1.46,0,2.74.08,3.75a3.91,3.91,0,0,0,3.07,3.66c3,.66,7.73.41,12.24,0" transform="translate(-976.96 -307.06)"/>
        <path class="m21-i3-cls-1" d="M1026.88,340.34a3.92,3.92,0,0,1-3.07,3.66c-4.63,1-13.56-.13-19.22-.85a5.81,5.81,0,0,1-5.08-5.83c.09-8.77,1.56-29.06,14.46-29.06,11.37,0,13,18.61,13,28.18,0-9.57,1.62-28.18,13-28.18,10.1,0,13.19,12.43,14.1,22" transform="translate(-976.96 -307.06)"/>
        <path class="m21-i3-cls-1" d="M1055,330.34c0-.12,0-.25,0-.37,0-6.37,3.83-21.71,11-21.71s9.76,13.22,9.76,29.35c0,2.49-5.27,3.16-10.15,3.25" transform="translate(-976.96 -307.06)"/>
        <path class="m21-i3-cls-1" d="M996.41,340.58A22.23,22.23,0,0,0,999,330c0-6.37-3.82-21.71-11-21.71s-9.76,13.22-9.76,29.35C978.16,342.25,996.41,340.58,996.41,340.58Z" transform="translate(-976.96 -307.06)"/>
      </g>
      <path class="m21-i3-cls-1" d="M1051.88,358.51l-11.57,3.85a21,21,0,0,0-7.92,4.81l-39.18,37.88" transform="translate(-976.96 -307.06)"/>
      <polyline class="m21-i3-cls-1" points="25.7 97.99 64.27 65.65 70.99 59.4"/>
      <g>
        <line class="m21-i3-cls-1" x1="78.01" y1="69.39" x2="78.01" y2="72.26"/>
        <line class="m21-i3-cls-1" x1="78.01" y1="77.18" x2="78.01" y2="80.05"/>
        <line class="m21-i3-cls-1" x1="83.34" y1="74.72" x2="80.46" y2="74.72"/>
        <line class="m21-i3-cls-1" x1="75.55" y1="74.72" x2="72.67" y2="74.72"/>
      </g>
      <g>
        <line class="m21-i3-cls-1" x1="103.03" y1="57.01" x2="103.03" y2="58.62"/>
        <line class="m21-i3-cls-1" x1="103.03" y1="63.63" x2="103.03" y2="65.24"/>
        <line class="m21-i3-cls-1" x1="107.59" y1="61.12" x2="105.8" y2="61.12"/>
        <line class="m21-i3-cls-1" x1="100.25" y1="61.12" x2="98.46" y2="61.12"/>
      </g>
      <g>
        <line class="m21-i3-cls-1" x1="90.48" y1="42.4" x2="90.48" y2="44.01"/>
        <line class="m21-i3-cls-1" x1="90.48" y1="49.02" x2="90.48" y2="50.63"/>
        <line class="m21-i3-cls-1" x1="95.05" y1="46.51" x2="93.26" y2="46.51"/>
        <line class="m21-i3-cls-1" x1="87.71" y1="46.51" x2="85.92" y2="46.51"/>
      </g>
      <path class="m21-i3-cls-1" d="M1050.8,337.44a19.17,19.17,0,0,0-1.18,3.06" transform="translate(-976.96 -307.06)"/>
      <line class="m21-i3-cls-1" x1="72.13" y1="38.24" x2="71.22" y2="46.61"/>
    </g>
  </g>
</svg>
