<svg xmlns="http://www.w3.org/2000/svg" viewBox="0 0 113.86 90">
  <defs>
    <style>
      .m21-i4-cls-1, .m21-i4-cls-2, .m21-i4-cls-3 {
        fill: none;
        stroke: currentColor;
        stroke-linecap: round;
        stroke-linejoin: round;
        stroke-width: 2.4px;
      }

      .m21-i4-cls-2 {
        stroke-dasharray: 2.53 4.05 !important;
      }

      .m21-i4-cls-3 {
        stroke-dasharray: 2.52 4.03 !important;
      }
    </style>
  </defs>
  <title>m21-custom-4</title>
  <g>
    <path class="m21-i4-cls-1" d="M586.25,372.09a3.45,3.45,0,0,0,.08-.75,13.13,13.13,0,0,0-.72-3.49" transform="translate(-543.07 -311.65)"/>
          <path class="m21-i4-cls-2" d="M613.18,371.34a3.52,3.52,0,0,0,.08.75c2.38,9.73-1.61,28.36-8.4,28.36-6.06,0,6-23.31-5.1-23.31h0c-11.06,0,1,23.31-5.1,23.31-6.78,0-10.77-18.63-8.4-28.36" transform="translate(-543.07 -311.65)"/>
          <path class="m21-i4-cls-1" d="M615.93,361.07c-.76,3.68-2.74,7.85-2.75,10.27" transform="translate(-543.07 -311.65)"/>
          <path class="m21-i4-cls-1" d="M646.2,372.09a2.93,2.93,0,0,1-.08-.75h0c0-3,3-8.67,3-12.78,0-4.48-2-9.85-6.81-9.85s-5.52,2.26-9.66,2.26h0c-4.14,0-4.82-2.26-9.65-2.26-4.2,0-6.25,4.06-6.71,8.06" transform="translate(-543.07 -311.65)"/>
          <path class="m21-i4-cls-2" d="M619.18,372.09c-2.37,9.73,1.62,28.36,8.41,28.36,6.06,0-6-23.31,5.1-23.31h0c11.07,0-1,23.31,5.11,23.31,6.78,0,10.77-18.63,8.4-28.36" transform="translate(-543.07 -311.65)"/>
          <path class="m21-i4-cls-1" d="M616.49,360.94c.74,3.71,2.77,8,2.77,10.4a3,3,0,0,1-.08.75" transform="translate(-543.07 -311.65)"/>
          <path class="m21-i4-cls-1" d="M553.31,372.09c.66-2.68-3-9-3-13.53s2-9.85,6.82-9.85,5.51,2.26,9.65,2.26h0c4.14,0,4.83-2.26,9.65-2.26s6.82,5.37,6.82,9.85-3.62,10.85-3,13.53" transform="translate(-543.07 -311.65)"/>
          <g>
            <path class="m21-i4-cls-1" d="M580.33,372.09c.09.39.18.81.26,1.24" transform="translate(-543.07 -311.65)"/>
            <path class="m21-i4-cls-3" d="M581,377.34c.36,10-3.37,23.11-9.07,23.11-6,0,6-23.31-5.1-23.31h0c-11.07,0,.95,23.31-5.1,23.31s-9.93-15-8.94-25.13" transform="translate(-543.07 -311.65)"/>
            <path class="m21-i4-cls-1" d="M553.05,373.33c.08-.43.17-.85.26-1.24" transform="translate(-543.07 -311.65)"/>
          </g>
          <path class="m21-i4-cls-1" d="M616.12,356.82c-.45-4-2.5-8.11-6.71-8.11-4.67,0-5.46,2.11-9.24,2.26h-.42a9.65,9.65,0,0,1-4.33-1,11.69,11.69,0,0,0-5.32-1.23c-4.82,0-6.81,5.37-6.81,9.85a22.39,22.39,0,0,0,.83,4.55.88.88,0,0,0,1,.64c2.75-.44,12.11-2,17-3.31,5.22-1.43,9.91-2.68,14-3.62l.21-.05c8.71-2,14.72-2.55,17.49-.43a4.17,4.17,0,0,1,1.68,3.45,2,2,0,1,1-4.1,0,.44.44,0,0,0,0-.15s-1-1.33-9.25.12c-1.77.32-3.67.72-5.64,1.18l-.56.13c-4.07,1-8.45,2.16-12.72,3.33-8.8,2.4-14.49,3.43-17.6,3.45-2.32,0-3.9-.81-3.9-2.29h0" transform="translate(-543.07 -311.65)"/>
          <line class="m21-i4-cls-1" x1="57.1" y1="39.31" x2="57.09" y2="39.31"/>
          <path class="m21-i4-cls-1" d="M609.65,348.72c7.94-3.49,21.83-12,45.15-32.09a2.06,2.06,0,0,0-2.25-3.44c-47.08,38.43-56.54,36.9-57.1,36.76h0" transform="translate(-543.07 -311.65)"/>
          <path class="m21-i4-cls-1" d="M544.27,372a11.21,11.21,0,0,0,4.19-1.74,3.45,3.45,0,0,1,1.89-.64,4.23,4.23,0,0,1,3,1.71,64.54,64.54,0,0,0,13.44,1.85h0a64.54,64.54,0,0,0,13.44-1.85,3.54,3.54,0,0,1,6.06,0,49.71,49.71,0,0,0,26.87,0,3.55,3.55,0,0,1,6.07,0,49.71,49.71,0,0,0,26.87,0,4.23,4.23,0,0,1,3-1.71,3.52,3.52,0,0,1,2.12.8,7.61,7.61,0,0,0,3,1.4" transform="translate(-543.07 -311.65)"/>
  </g>
</svg>
