<svg xmlns="http://www.w3.org/2000/svg" viewBox="0 0 113.69 73.53">
  <defs>
    <style>
      .m21-i5-cls-1 {
        fill: none;
        stroke: currentColor;
        stroke-linecap: round;
        stroke-linejoin: round;
        stroke-width: 2.4px;
      }
    </style>
  </defs>
  <title>m21-custom-5</title>
  <g>
    <g>
      <path class="m21-i5-cls-1" d="M767.68,785.24c-3.79-3.63-6.28-12.89-7.59-19.18a2.6,2.6,0,0,1,4-2.69c4.26,2.82,10,6.31,12.51,6.31,4.18,0,10.45-9.85,18.51-9.85s13.14,7.76,19.56,7.76h2.05c6.43,0,11.51-7.76,19.57-7.76s14.33,9.85,18.51,9.85c2.48,0,8.24-3.49,12.5-6.31a2.6,2.6,0,0,1,4,2.69c-1.31,6.29-3.8,15.55-7.59,19.18" transform="translate(-758.83 -758.63)"/>
      <path class="m21-i5-cls-1" d="M815.63,798.51a2.06,2.06,0,0,1-1.62,1.93c-2.44.54-7.15-.07-10.13-.45a3.05,3.05,0,0,1-2.68-3.07c0-4.63.82-15.33,7.62-15.33,6,0,6.85,9.81,6.86,14.86,0-5.05.86-14.86,6.85-14.86,6.81,0,7.58,10.7,7.63,15.33a3.06,3.06,0,0,1-2.68,3.07c-3,.38-7.69,1-10.14.45a2.08,2.08,0,0,1-1.62-1.93c0-.54,0-1.21,0-2" transform="translate(-758.83 -758.63)"/>
      <path class="m21-i5-cls-1" d="M815.68,792.38c0,.77,0,1.44,0,2" transform="translate(-758.83 -758.63)"/>
      <path class="m21-i5-cls-1" d="M831.79,798.64a11.78,11.78,0,0,1-1.34-5.6c0-3.36,2-11.45,5.82-11.45s5.15,7,5.15,15.48C841.42,799.51,831.79,798.64,831.79,798.64Z" transform="translate(-758.83 -758.63)"/>
      <path class="m21-i5-cls-1" d="M799.57,798.64a11.78,11.78,0,0,0,1.34-5.6c0-3.36-2-11.45-5.82-11.45s-5.15,7-5.15,15.48C789.94,799.51,799.57,798.64,799.57,798.64Z" transform="translate(-758.83 -758.63)"/>
      <path class="m21-i5-cls-1" d="M840.44,786.79s3.66-7.16,7.69-7.16,2.62,14.76,0,17.37-6.71-1.72-6.71-1.72" transform="translate(-758.83 -758.63)"/>
      <path class="m21-i5-cls-1" d="M790.91,786.79s-3.66-7.16-7.69-7.16-2.61,14.76,0,17.37,6.72-1.72,6.72-1.72" transform="translate(-758.83 -758.63)"/>
      <path class="m21-i5-cls-1" d="M850.64,786.78s2.2-5.19,5.33-5.19,2,9.66,0,12.34-6.37,0-6.37,0" transform="translate(-758.83 -758.63)"/>
      <path class="m21-i5-cls-1" d="M780.71,786.78s-2.19-5.19-5.32-5.19-2,9.66,0,12.34,6.37,0,6.37,0" transform="translate(-758.83 -758.63)"/>
      <path class="m21-i5-cls-1" d="M857.91,785.18s1.87-3.59,4.78-3.59c2,0,.8,5.51-.14,8.88a2.88,2.88,0,0,1-3.33,2.06l-2.33-.46" transform="translate(-758.83 -758.63)"/>
      <path class="m21-i5-cls-1" d="M773.45,785.18s-1.87-3.59-4.78-3.59c-2,0-.8,5.51.13,8.88a2.9,2.9,0,0,0,3.34,2.06l2.32-.46" transform="translate(-758.83 -758.63)"/>
      <path class="m21-i5-cls-1" d="M824.69,800.33a2.06,2.06,0,0,1,.39,1.27c-.08,4.71-.67,10.73-4.79,10.73-3.31,0-4.12-7.42-4.33-10.94v0c-.2,3.52-1,10.94-4.33,10.94-4.11,0-4.71-6-4.79-10.73a2.13,2.13,0,0,1,.35-1.22" transform="translate(-758.83 -758.63)"/>
      <path class="m21-i5-cls-1" d="M815.13,799.77a1.65,1.65,0,0,1,.41.34.66.66,0,1,0,.85,0l.08-.09" transform="translate(-758.83 -758.63)"/>
      <path class="m21-i5-cls-1" d="M829,799.37l3.3-.16a1.74,1.74,0,0,1,1.37.58,2.11,2.11,0,0,1,.53,1.51c-.22,4.69-1.24,10.57-4.76,10.57-3.19,0-4.07-7.14-4.31-10.54a1.85,1.85,0,0,1,.27-1.08" transform="translate(-758.83 -758.63)"/>
      <path class="m21-i5-cls-1" d="M806.6,800.32a1.83,1.83,0,0,1,.22,1c-.24,3.4-1.11,10.54-4.31,10.54-3.51,0-4.54-5.88-4.76-10.57a2.15,2.15,0,0,1,.53-1.51,1.75,1.75,0,0,1,1.38-.58l2.68.13" transform="translate(-758.83 -758.63)"/>
      <path class="m21-i5-cls-1" d="M840.7,798a1.45,1.45,0,0,1,.2.32h0c1.8,3.35-.07,13.57-1.95,13.57a5.58,5.58,0,0,1-5.57-4.52" transform="translate(-758.83 -758.63)"/>
      <path class="m21-i5-cls-1" d="M833.64,799.76a5.16,5.16,0,0,1,1-1" transform="translate(-758.83 -758.63)"/>
      <path class="m21-i5-cls-1" d="M791.09,798.23a.75.75,0,0,1-.07.12c-1.8,3.35.08,13.57,2,13.57a5.59,5.59,0,0,0,5.58-4.52" transform="translate(-758.83 -758.63)"/>
      <path class="m21-i5-cls-1" d="M797.24,798.77a4.85,4.85,0,0,1,1,1" transform="translate(-758.83 -758.63)"/>
      <path class="m21-i5-cls-1" d="M848.9,795.82c.86,1.2.21,5.44-.55,9h0c-.18.83-.37,1.63-.54,2.35a3,3,0,0,1-3.47,2.43l-3.45-.87" transform="translate(-758.83 -758.63)"/>
      <path class="m21-i5-cls-1" d="M840.89,798.36h0a14.55,14.55,0,0,1,2.37-1.56" transform="translate(-758.83 -758.63)"/>
      <path class="m21-i5-cls-1" d="M782.77,796.4c-.44,1.66.14,5.3.81,8.44.18.83.36,1.63.53,2.35a3,3,0,0,0,3.47,2.43l3.45-.87" transform="translate(-758.83 -758.63)"/>
      <path class="m21-i5-cls-1" d="M791,798.36h0a14.87,14.87,0,0,0-2.68-1.72" transform="translate(-758.83 -758.63)"/>
      <path class="m21-i5-cls-1" d="M856.21,793.57a13.26,13.26,0,0,1,.25,7.2c-.61,2.85-1.89,5.3-3.4,5.61a5.1,5.1,0,0,1-4.71-1.54h0" transform="translate(-758.83 -758.63)"/>
      <path class="m21-i5-cls-1" d="M783.58,804.84a5.08,5.08,0,0,1-4.72,1.54c-1.5-.31-2.78-2.75-3.39-5.6h0a14,14,0,0,1,0-6.67" transform="translate(-758.83 -758.63)"/>
      <path class="m21-i5-cls-1" d="M862.38,790.93a19.82,19.82,0,0,1,.51,5.14c-.1,1.89-.63,3.74-2.1,4.7-3.7,2.39-4.33,0-4.33,0" transform="translate(-758.83 -758.63)"/>
      <path class="m21-i5-cls-1" d="M775.47,800.77h0c-.05.16-.78,2.29-4.33,0-2.78-1.82-2.2-6.81-1.74-9.18" transform="translate(-758.83 -758.63)"/>
      <path class="m21-i5-cls-1" d="M768.14,796.07s-4.06,1-4.06,13.63C764.08,819,783,831,792.83,831s11.18-3.37,22.68-3.37S828.39,831,838.2,831s28.74-12,28.74-21.26c0-12.59-4.05-13.63-4.05-13.63" transform="translate(-758.83 -758.63)"/>
    </g>
  </g>
</svg>
