<svg xmlns="http://www.w3.org/2000/svg" viewBox="0 0 80.25 113.86">
  <defs>
    <style>
      .m21-i6-cls-1 {
        fill: none;
      }

      .m21-i6-cls-1, .m21-i6-cls-2 {
        stroke: currentColor;
        stroke-linecap: round;
        stroke-linejoin: round;
        stroke-width: 2.4px;
      }

      .m21-i6-cls-2 {
        fill: currentColor;
      }
    </style>
  </defs>
  <title>m21-custom-6</title>
  <g>
    <path class="m21-i6-cls-1" d="M1041.34,812c2.09,3,.66,18.45-9.55,18.45l-.43,0-.44,0c-10.21,0-11.64-15.43-9.55-18.45" transform="translate(-991.23 -738.38)"/>
    <path class="m21-i6-cls-1" d="M1041.34,812c2.09,3,.66,18.45-9.55,18.45l-.43,0-.44,0c-10.21,0-11.64-15.43-9.55-18.45" transform="translate(-991.23 -738.38)"/>
    <path class="m21-i6-cls-1" d="M1014.35,813.8c-5.91,13.14,3.59,23.12,8.74,23.12,4.09,0,7.17-4.07,8.27-5.74,1.09,1.67,4.17,5.74,8.26,5.74,5.15,0,14.65-10,8.74-23.12" transform="translate(-991.23 -738.38)"/>
    <line class="m21-i6-cls-1" x1="40.13" y1="92.81" x2="40.13" y2="112.66"/>
    <line class="m21-i6-cls-1" x1="36.21" y1="105.76" x2="31.81" y2="105.76"/>
    <line class="m21-i6-cls-1" x1="36.21" y1="112.66" x2="31.81" y2="112.66"/>
    <path class="m21-i6-cls-1" d="M1051.5,785.69a0,0,0,0,0,0,0" transform="translate(-991.23 -738.38)"/>
    <path class="m21-i6-cls-1" d="M1011.21,785.69a0,0,0,0,1,0,0" transform="translate(-991.23 -738.38)"/>
    <path class="m21-i6-cls-1" d="M1050.86,794.63a27.14,27.14,0,0,1-8.75,15.42,19,19,0,0,1-2.44,1.73,15.44,15.44,0,0,1-16.63,0,19,19,0,0,1-2.44-1.73,27.14,27.14,0,0,1-8.75-15.42" transform="translate(-991.23 -738.38)"/>
    <path class="m21-i6-cls-1" d="M1010.7,763.59l-6.38-14.52s9.2-9.38,27-9.49c17.83.11,27,9.49,27,9.49l-6.31,14.37" transform="translate(-991.23 -738.38)"/>
    <path class="m21-i6-cls-1" d="M1050.37,785.63a1.37,1.37,0,0,1,.29,0,3.93,3.93,0,0,1,.69.06l.15,0a4.51,4.51,0,0,1-.64,8.94" transform="translate(-991.23 -738.38)"/>
    <path class="m21-i6-cls-1" d="M1012.34,785.63a1.37,1.37,0,0,0-.29,0,3.93,3.93,0,0,0-.69.06l-.15,0a4.51,4.51,0,0,0,.64,8.94" transform="translate(-991.23 -738.38)"/>
    <path class="m21-i6-cls-1" d="M1070.09,850.74s4.4-33.06-28.75-38.71c-.55-.1-1.1-.18-1.67-.25" transform="translate(-991.23 -738.38)"/>
    <path class="m21-i6-cls-1" d="M1023,811.78c-.57.07-1.12.15-1.67.25-33.15,5.65-28.75,38.71-28.75,38.71" transform="translate(-991.23 -738.38)"/>
    <path class="m21-i6-cls-1" d="M1025.33,802.13a8.2,8.2,0,0,0,12.05,0" transform="translate(-991.23 -738.38)"/>
    <path class="m21-i6-cls-1" d="M1050.37,785.63c0-8.47-13.4-15.12-13.4-15.12s-2-11,3.44-11.74" transform="translate(-991.23 -738.38)"/>
    <path class="m21-i6-cls-1" d="M1051.79,815.18c7.33,4.66,11.54,1.77,14.93-3.15-10.29-1.64-12.14-7.16-8.63-15.43,9.94-32.41-15.66-39.28-17.68-37.83" transform="translate(-991.23 -738.38)"/>
    <path class="m21-i6-cls-1" d="M1010.92,815.18c-7.33,4.66-11.54,1.77-14.93-3.15,10.29-1.64,12.14-7.16,8.63-15.43-9.94-32.41,19.86-47.93,35-37.63" transform="translate(-991.23 -738.38)"/>
    <path class="m21-i6-cls-1" d="M1012.34,785.63c5.47-8.47,15.09-4.78,24.63-15.12" transform="translate(-991.23 -738.38)"/>
    <line class="m21-i6-cls-1" x1="40.13" y1="5.49" x2="40.13" y2="13.33"/>
    <line class="m21-i6-cls-1" x1="36.2" y1="9.41" x2="44.05" y2="9.41"/>
    <path class="m21-i6-cls-2" d="M1041.17,788.53a1.55,1.55,0,1,0-1.55,1.55A1.55,1.55,0,0,0,1041.17,788.53Z" transform="translate(-991.23 -738.38)"/>
    <path class="m21-i6-cls-2" d="M1021.54,788.53a1.55,1.55,0,1,1,1.55,1.55A1.55,1.55,0,0,1,1021.54,788.53Z" transform="translate(-991.23 -738.38)"/>
    <line class="m21-i6-cls-2" x1="49.94" y1="50.16" x2="51.75" y2="49.23"/>
    <line class="m21-i6-cls-2" x1="30.32" y1="50.16" x2="28.5" y2="49.23"/>
  </g>
</svg>