<svg xmlns:svg="http://www.w3.org/2000/svg" xmlns="http://www.w3.org/2000/svg" version="1.0" width="220" height="210" x="0px" y="0px" viewBox="0 0 220 210">
    <g stroke="currentColor" stroke-width="10">
        <path fill="none" d="M 110.00  25.29 A 60 60 0 1 0  51.27 127.00 A 60 60 0 0 1  91.25  82.27 A 60 60 0 0 1 110.00  25.29 Z" />
        <path fill="none" d="M 168.73 127.00 A 60 60 0 1 0 110.00  25.29 A 60 60 0 0 1 128.75  82.27 A 60 60 0 0 1 168.73 127.00 Z" />
        <path fill="none" d="M  51.27 127.00 A 60 60 0 1 0 168.73 127.00 A 60 60 0 0 1 110.00 114.71 A 60 60 0 0 1  51.27 127.00 Z" />
        <path fill="none" d="M 110.00  25.29 A 60 60 0 0 0  91.25  82.27 A 60 60 0 0 1 128.75  82.27 A 60 60 0 0 0 110.00  25.29 Z" />
        <path fill="none" d="M  51.27 127.00 A 60 60 0 0 0 110.00 114.71 A 60 60 0 0 1  91.25  82.27 A 60 60 0 0 0  51.27 127.00 Z" />
        <path fill="none" d="M 168.73 127.00 A 60 60 0 0 0 128.75  82.27 A 60 60 0 0 1 110.00 114.71 A 60 60 0 0 0 168.73 127.00 Z" />
        <path fill="none" d="M 110.00 114.71 A 60 60 0 0 0 128.75  82.27 A 60 60 0 0 0  91.25  82.27 A 60 60 0 0 0 110.00 114.71 Z" />
    </g>
</svg>